<?xml version="1.0" encoding="utf-8"?>
<!-- Generator: Adobe Illustrator 16.0.4, SVG Export Plug-In . SVG Version: 6.00 Build 0)  -->
<!DOCTYPE svg PUBLIC "-//W3C//DTD SVG 1.1//EN" "http://www.w3.org/Graphics/SVG/1.1/DTD/svg11.dtd">
<svg version="1.1" id="Layer_1" xmlns="http://www.w3.org/2000/svg" xmlns:xlink="http://www.w3.org/1999/xlink" x="0px" y="0px"
	preserveAspectRatio="xMidYMid" viewBox="0 190.773 595.279 538.583" enable-background="new 0 190.773 595.279 538.583"
	 xml:space="preserve">
<desc>Example rect01 - rectangle with sharp corners</desc>
<path fill="#BFBABF" d="M299.741,295.244c25.185,0,45.617-20.426,45.617-45.637c0-25.164-20.434-45.617-45.617-45.617
	c-25.186,0-45.633,20.453-45.633,45.617C254.109,274.818,274.556,295.244,299.741,295.244"/>
<path fill="#BFBABF" d="M399.792,377.369c1.91-27.477-18.629-72.074-64.698-72.074h-74.906c-45.879,0-66.619,44.598-64.699,72.074
	l-1.129,130.805c0.598,8.66,8.086,15.172,16.721,14.586c8.648-0.59,14.26-7.944,14.562-16.703l6.963-106.94
	c0.057-1.98,1.705-3.551,3.678-3.477c1.99,0.051,3.527,1.714,3.471,3.676v304.422c0,6.672,5.478,12.155,12.177,12.155h21.284
	c6.695,0,11.765-4.688,12.177-12.155l7.522-169.277c0.443-4.598,0.369-7.59,4.562-7.59h0.237c4.211,0,4.134,2.992,4.562,7.59
	l7.527,169.277c0.41,7.469,5.473,12.155,12.176,12.155h21.281c6.703,0,12.18-5.483,12.18-12.155l0.074-304.422h0.016
	c-0.059-1.962,1.504-3.625,3.473-3.676c1.974-0.074,3.625,1.496,3.677,3.477l6.965,106.94c0.297,8.759,5.93,16.113,14.562,16.703
	c8.634,0.586,16.134-5.926,16.72-14.586L399.792,377.369z"/>
</svg>
