<?xml version="1.0" encoding="utf-8"?>
<!-- Generator: Adobe Illustrator 16.0.4, SVG Export Plug-In . SVG Version: 6.00 Build 0)  -->
<!DOCTYPE svg PUBLIC "-//W3C//DTD SVG 1.1//EN" "http://www.w3.org/Graphics/SVG/1.1/DTD/svg11.dtd">
<svg version="1.1" id="Layer_1" xmlns="http://www.w3.org/2000/svg" xmlns:xlink="http://www.w3.org/1999/xlink" x="0px" y="0px"
	 preserveAspectRatio="xMidYMid" viewBox="0 190.523 595.279 538.583" enable-background="new 0 190.523 595.279 538.583"
	 xml:space="preserve">
<desc>Example rect01 - rectangle with sharp corners</desc>
<path fill="#BFBABF" d="M299.741,295.244c25.184,0,45.617-20.426,45.617-45.637c0-25.164-20.434-45.617-45.617-45.617
	c-25.186,0-45.633,20.453-45.633,45.617C254.109,274.818,274.556,295.244,299.741,295.244"/>
<path fill="#BFBABF" d="M422.59,492.404l-25.289-128.621c-4.43-27.203-28.906-58.461-67.672-58.461h-59.781
	c-38.789,0-63.244,31.258-67.695,58.461l-25.273,128.621c-1.412,8.559,4.385,16.629,12.93,18.016
	c8.539,1.426,15.707-4.465,18.012-12.902l32.855-108.133c0.488-1.891,2.408-3.043,4.32-2.531c1.9,0.469,3.02,2.398,2.551,4.312
	l-41.619,179.945c-1.355,6.559,3,11.934,9.703,11.934l11.965-0.043c6.707,0,13.049,5.445,14.1,12.016l17.449,108.922
	c1.051,6.633,7.391,12,14.098,12h51.715c6.68,0,12.91-5.406,13.812-12.051l14.934-108.836c0.906-6.605,7.133-12.051,13.812-12.051
	l12.176,0.043c6.699,0,11.055-5.375,9.688-11.934l-37.441-179.945c-0.48-1.914,0.637-3.844,2.539-4.312
	c1.891-0.512,3.824,0.641,4.312,2.531l32.859,108.133c2.332,8.438,9.477,14.328,18.016,12.902
	C418.199,509.033,423.996,500.963,422.59,492.404"/>
</svg>
